<?xml version="1.0" standalone="no"?>
<!DOCTYPE svg PUBLIC "-//W3C//DTD SVG 20010904//EN"
 "http://www.w3.org/TR/2001/REC-SVG-20010904/DTD/svg10.dtd">
<svg version="1.0" xmlns="http://www.w3.org/2000/svg"
 width="700.000000pt" height="700.000000pt" viewBox="0 0 700.000000 700.000000"
 preserveAspectRatio="xMidYMid meet">
<metadata>
Created by potrace 1.14, written by Peter Selinger 2001-2017
</metadata>
<g transform="translate(0.000000,700.000000) scale(0.100000,-0.100000)"
fill="#000000" stroke="none">
<path d="M3329 6951 c-79 -70 -251 -207 -460 -366 -202 -154 -390 -332 -483
-457 -90 -123 -180 -277 -290 -500 -151 -302 -229 -412 -417 -583 -65 -60
-369 -285 -384 -285 -3 0 -15 -9 -27 -19 -13 -10 -58 -47 -102 -82 -181 -145
-320 -321 -425 -541 -35 -72 -78 -125 -215 -263 -187 -190 -256 -327 -251
-501 4 -124 4 -126 18 -118 6 4 1 -4 -11 -19 -16 -17 -46 -31 -93 -42 -76 -19
-112 -42 -134 -85 -14 -27 -13 -33 16 -97 29 -65 80 -244 93 -327 4 -21 8 -48
11 -60 8 -36 14 -75 21 -144 l6 -67 -33 -1 c-71 -3 -209 -64 -144 -64 18 0
169 -247 171 -280 2 -14 3 -29 3 -33 2 -13 33 9 96 68 66 60 91 70 81 31 -5
-19 19 -64 109 -210 132 -216 142 -240 113 -288 l-20 -33 23 20 c13 11 41 36
64 57 22 20 51 45 65 56 l24 20 86 -139 c47 -77 90 -147 95 -157 6 -9 20 -33
32 -52 20 -33 27 -61 24 -102 -1 -10 -17 -36 -37 -57 l-35 -40 27 -18 c21 -13
47 -18 99 -18 145 1 285 35 745 180 148 47 245 70 305 74 6 1 31 19 55 40 25
22 46 39 46 38 1 -1 4 -22 7 -47 3 -25 11 -67 17 -95 7 -27 14 -61 16 -75 16
-86 130 -368 173 -430 9 -13 12 -13 23 3 12 17 17 15 68 -23 32 -24 62 -39 72
-36 14 3 18 -2 18 -24 0 -16 10 -58 23 -93 75 -206 248 -405 481 -551 119 -75
220 -110 316 -111 l75 0 385 269 c382 267 549 385 645 456 28 20 111 81 185
135 74 54 139 102 145 107 5 5 48 38 95 74 382 296 686 584 1215 1148 66 70
138 147 160 170 22 23 103 109 180 191 77 82 149 159 160 171 11 11 76 80 145
154 69 73 137 145 151 159 46 47 49 61 44 198 -2 70 -7 144 -9 163 -3 19 -8
55 -11 80 -32 254 -121 640 -177 767 -11 26 -22 50 -24 52 -3 3 -20 -11 -39
-29 -33 -32 -45 -28 -26 9 17 30 18 85 4 114 -14 27 -43 44 -92 53 -38 8 -41
10 -96 128 -120 254 -125 265 -182 348 -18 25 -38 48 -45 51 -15 5 -54 -25
-152 -116 l-70 -65 -30 33 c-17 18 -48 61 -68 95 -37 62 -49 91 -128 290 -48
122 -112 228 -170 285 -39 38 -44 40 -103 40 -69 0 -106 -15 -202 -79 -81 -54
-100 -71 -256 -226 -118 -118 -176 -179 -307 -330 l-30 -34 -53 13 c-67 16
-116 48 -127 81 -28 84 50 250 181 387 l41 43 -21 22 c-36 41 -35 55 8 105 36
41 41 51 36 84 -5 37 -61 136 -180 314 -203 306 -388 469 -603 530 -86 25
-122 46 -257 149 -167 126 -296 245 -379 348 l-46 56 -53 -47z m500 -1856 c5
-6 21 -32 36 -60 14 -27 34 -63 44 -80 10 -16 55 -97 101 -180 46 -82 92 -166
103 -185 41 -73 145 -257 177 -315 18 -33 41 -73 51 -90 10 -16 29 -50 42 -75
13 -25 64 -117 114 -205 49 -88 101 -180 115 -205 14 -25 74 -133 135 -240 60
-107 125 -222 143 -255 34 -62 246 -439 286 -510 105 -187 293 -524 325 -581
l38 -71 -383 0 c-211 0 -388 2 -394 6 -11 7 -37 55 -129 229 -36 70 -69 132
-73 137 -4 6 -38 69 -75 140 -37 72 -71 135 -76 140 -11 14 -1894 14 -1908 0
-8 -9 -42 -74 -265 -505 l-75 -145 -350 -1 -350 -1 16 31 c9 17 71 130 138
251 67 121 136 245 152 275 33 60 65 118 124 223 22 38 39 71 39 73 0 2 20 38
45 80 25 41 45 77 45 79 0 2 32 61 112 205 27 48 482 872 528 955 41 74 123
223 156 280 15 28 44 79 63 116 176 322 269 482 283 488 28 10 656 7 667 -4z"/>
<path d="M3442 4477 c-11 -18 -43 -77 -72 -132 -29 -55 -56 -104 -60 -110 -4
-5 -31 -55 -60 -110 -99 -188 -133 -250 -167 -308 -18 -32 -33 -60 -33 -63 0
-2 -22 -43 -48 -91 -27 -49 -68 -124 -92 -168 -23 -44 -60 -112 -81 -151 -22
-39 -39 -73 -39 -75 0 -2 297 -4 660 -4 l659 0 -83 160 c-128 246 -192 368
-268 515 -39 74 -90 171 -113 215 -24 44 -75 142 -113 217 l-71 137 -19 -32z"/>
</g>
</svg>
