<?xml version="1.0" encoding="utf-8"?>
<!-- Generator: Adobe Illustrator 16.0.3, SVG Export Plug-In . SVG Version: 6.00 Build 0)  -->
<!DOCTYPE svg PUBLIC "-//W3C//DTD SVG 1.1//EN" "http://www.w3.org/Graphics/SVG/1.1/DTD/svg11.dtd">
<svg version="1.1" id="Layer_1" xmlns="http://www.w3.org/2000/svg" xmlns:xlink="http://www.w3.org/1999/xlink" x="0px" y="0px"
	 width="48px" height="48px" viewBox="0 0 48 48" enable-background="new 0 0 48 48" xml:space="preserve">
<path fill="none" d="M2.155,25.269c0.03-0.219,0.045-0.487,0.042-0.828L2.155,25.269z"/>
<polygon fill="#FF9600" points="28.178,25.613 26.974,23.305 25.092,25.613 "/>
<path fill="#FF9600" d="M46.433,18.491c-1.453,1.307,0.743-0.754-1.091-0.995c-0.363,0.326-1.129-2.769-2.237-3.665
	c-0.363,0.326-1.089,0.981-1.452,1.308c-1.482-1.506-1.248-3.364-2.731-4.87c-1.278-1.3-4.446,2.44-6.081,4.311
	c0.314-0.083,0.713-0.36,1.16-0.737c-0.652,0.732-1.206,2.386-1.548,2.741l-2.497,3.063L38,34h-5.369l-2.427-4.557h-8.233
	l-6.466,7.934l-0.451,0.404c0.185,1.688,0.871,3.512,1.556,4.634c-0.01-0.938,1.109,0.894,1.099-0.044
	c0.027,2.813,4.427,6.235,6.252,5.537c13.832-9.609,12-8.374,23.971-21.04C48.287,25.604,47.178,19.712,46.433,18.491z"/>
<path fill="#F05000" d="M2.155,25.269c-0.04,0.29-0.106,0.481-0.192,0.617c0.036,0.176,0.075,0.354,0.133,0.542L2.155,25.269z"/>
<g>
	<polygon fill="#F05000" points="23.721,17.069 19.109,25.613 23.399,25.613 25.092,25.613 26.974,23.305 26.364,22.136 	"/>
	<path fill="#F05000" d="M32.84,14.58c-0.178,0.047-0.329,0.035-0.445-0.059c-1.855-0.24-0.395-2.503,0.707-3.489
		c-1.121-0.903,0.734-0.661-0.018-1.891c-1.508-2.463-3.016-4.921-5.615-5.45c-0.746-0.288-3.508-2.46-4.26-3.692
		c-4.41,3.952-6.287,3.723-9.188,10.137c-2.544,5.138-6.61,4.473-9.005,9.768c-0.688,1.522-3.732,2.671-3.052,5.981
		c0.085-0.136,0.152-0.327,0.192-0.617l0.042-0.828c0.003,0.34-0.012,0.609-0.042,0.828l-0.059,1.159
		c-0.058-0.188-0.097-0.366-0.133-0.542c-0.387,0.613-1.172-0.022-1.695,1.132c0.687,1.124,1.058,3.736,1.124,4.551
		c-0.465-0.037-1.984,0.473-1.141,0.438l1.131,1.846c-0.357,1.275,1.515-1.472,1.156-0.2c0.377,0.616,1.131,1.848,1.508,2.462
		c0.377,0.617,0.01,0.945-0.357,1.274c0.367-0.329,1.102-0.988,1.469-1.317c0.377,0.615,1.129,1.844,1.506,2.459
		c0.377,0.614,0.01,0.945-0.359,1.273c0.755,1.23,7.354-1.723,8.099-1.437l0.651-0.585l0.451-0.404l6.466-7.934h-1.836h-2.973
		L14.813,34H10l11.616-21h4.615l3.143,5.607l0.582,1.04l2.497-3.063c0.342-0.354,0.896-2.008,1.548-2.741
		C33.553,14.22,33.154,14.496,32.84,14.58z"/>
</g>
</svg>
