<svg width="48" height="48" viewBox="0 0 48 48" fill="none" xmlns="http://www.w3.org/2000/svg">
<path d="M32.1909 15.3013C33.4251 14.0166 37.4413 8.76431 38.9209 10.2683C40.4042 11.7745 40.1704 13.6323 41.6518 15.1385C42.0153 14.8113 42.7414 14.1568 43.1045 13.8307C44.2136 14.7265 44.9782 17.822 45.3413 17.4954C47.1765 17.7367 44.9796 19.7979 46.4327 18.4907C47.1779 19.7126 48.2865 25.6045 47.9318 26.8682C35.9613 39.5341 37.7937 38.2994 23.961 47.9082C22.1356 48.6062 17.7358 45.1829 17.7084 42.3705C17.7181 43.3093 16.5997 41.4764 16.6095 42.4152C15.4911 40.5828 14.355 36.8752 15.4353 34.9552L32.1909 15.3013Z" fill="#FF9600"/>
<path d="M32.4522 16.5828C32.794 16.2287 33.3474 14.5746 34 13.8425C33.2999 14.4328 32.7179 14.7806 32.3949 14.5211C30.5387 14.2808 31.9999 12.018 33.102 11.032C31.9807 10.1291 33.8364 10.3716 33.0841 9.14142C31.5759 6.67873 30.0681 4.2206 27.469 3.69175C26.7229 3.40369 23.9608 1.23134 23.2085 0C18.7989 3.95191 16.9221 3.72248 14.0207 10.1365C11.4767 15.2748 7.41025 14.6092 5.01527 19.9045C4.29076 21.5071 0.944178 22.6913 2.09606 26.428L2.1967 24.4409C2.22585 27.2713 0.992601 25.4168 0.267618 27.0171C0.954518 28.1414 1.325 30.7539 1.39129 31.5686C0.926309 31.5316 -0.592771 32.0416 0.250221 32.0063L1.38095 33.8519C1.02363 35.1271 2.8958 32.3798 2.5366 33.6515C2.91367 34.2681 3.6678 35.4988 4.0444 36.1137C4.42146 36.7302 4.05427 37.0592 3.68708 37.3877C4.05427 37.0592 4.78913 36.3994 5.15632 36.0704C5.53339 36.6852 6.28564 37.9143 6.6627 38.5291C7.03977 39.1433 6.67257 39.4741 6.3035 39.8031C7.05904 41.0339 13.6582 38.0801 14.4024 38.3664L15.5045 37.3776L32.4522 16.5828Z" fill="#F05000"/>
<path d="M26.2303 13L38 34H32.6306L30.204 29.4432H17.1614L14.8137 34H10L21.6156 13H26.2303ZM28.1773 25.6135L23.7212 17.0692L19.1093 25.6135H28.1773Z" fill="white"/>
</svg>
